<svg width="62" height="62" viewBox="0 0 62 62" fill="none" xmlns="http://www.w3.org/2000/svg">
<g clip-path="url(#clip0_607_85)">
<path d="M33.988 10.1407C34.0472 6.89052 31 2.46887 31 2.46887C31 2.46887 27.9528 6.89052 28.0121 10.1407C28.0686 13.2461 31 17.4086 31 17.4086C31 17.4086 33.9314 13.2461 33.988 10.1407Z" stroke="#A38F52" stroke-width="2"/>
<path d="M31.0002 38.3243C34.9194 38.3243 38.0966 35.1471 38.0966 31.2279C38.0966 27.3087 34.9194 24.1315 31.0002 24.1315C27.081 24.1315 23.9038 27.3087 23.9038 31.2279C23.9038 35.1471 27.081 38.3243 31.0002 38.3243Z" stroke="#A38F52" stroke-width="2"/>
<path d="M33.988 52.719C34.0472 49.4688 31 45.0472 31 45.0472C31 45.0472 27.9528 49.4688 28.0121 52.719C28.0686 55.8243 31 59.9869 31 59.9869C31 59.9869 33.9314 55.8243 33.988 52.719Z" stroke="#A38F52" stroke-width="2"/>
<path d="M43.8561 41.1125C45.4335 42.7527 49.2376 43.3257 49.2376 43.3257C49.2376 43.3257 48.6646 39.5216 47.0244 37.9442C45.4573 36.4371 41.8428 35.9309 41.8428 35.9309C41.8428 35.9309 42.349 39.5454 43.8561 41.1125Z" stroke="#A38F52" stroke-width="2"/>
<path d="M37.8801 46.3414C39.4574 47.9816 43.2615 48.5546 43.2615 48.5546C43.2615 48.5546 42.6885 44.7505 41.0483 43.1731C39.4812 41.666 35.8667 41.1598 35.8667 41.1598C35.8667 41.1598 36.3729 44.7743 37.8801 46.3414Z" stroke="#A38F52" stroke-width="2"/>
<path d="M20.7702 18.0264C22.3475 19.6665 26.1516 20.2396 26.1516 20.2396C26.1516 20.2396 25.5786 16.4355 23.9385 14.8581C22.3714 13.351 18.7568 12.8448 18.7568 12.8448C18.7568 12.8448 19.2631 16.4593 20.7702 18.0264Z" stroke="#A38F52" stroke-width="2"/>
<path d="M14.7941 23.2553C16.3715 24.8955 20.1756 25.4685 20.1756 25.4685C20.1756 25.4685 19.6026 21.6644 17.9624 20.087C16.3953 18.5799 12.7808 18.0737 12.7808 18.0737C12.7808 18.0737 13.287 21.6882 14.7941 23.2553Z" stroke="#A38F52" stroke-width="2"/>
<path d="M20.5961 43.856C18.9559 45.4334 18.3828 49.2375 18.3828 49.2375C18.3828 49.2375 22.187 48.6645 23.7643 47.0243C25.2715 45.4572 25.7776 41.8427 25.7776 41.8427C25.7776 41.8427 22.1632 42.3489 20.5961 43.856Z" stroke="#A38F52" stroke-width="2"/>
<path d="M15.3671 37.8801C13.7269 39.4575 13.1538 43.2616 13.1538 43.2616C13.1538 43.2616 16.958 42.6886 18.5353 41.0484C20.0425 39.4813 20.5486 35.8668 20.5486 35.8668C20.5486 35.8668 16.9342 36.373 15.3671 37.8801Z" stroke="#A38F52" stroke-width="2"/>
<path d="M43.6819 20.7699C42.0418 22.3473 41.4688 26.1514 41.4688 26.1514C41.4688 26.1514 45.2729 25.5784 46.8503 23.9382C48.3573 22.3711 48.8636 18.7566 48.8636 18.7566C48.8636 18.7566 45.249 19.2628 43.6819 20.7699Z" stroke="#A38F52" stroke-width="2"/>
<path d="M38.4529 14.794C36.8128 16.3714 36.2397 20.1755 36.2397 20.1755C36.2397 20.1755 40.0439 19.6025 41.6213 17.9623C43.1283 16.3952 43.6346 12.7807 43.6346 12.7807C43.6346 12.7807 40.02 13.2869 38.4529 14.794Z" stroke="#A38F52" stroke-width="2"/>
<path d="M9.91251 28.24C6.66237 28.1807 2.24072 31.2279 2.24072 31.2279C2.24072 31.2279 6.66237 34.2751 9.91251 34.2159C13.0179 34.1592 17.1805 31.2279 17.1805 31.2279C17.1805 31.2279 13.0179 28.2966 9.91251 28.24Z" stroke="#A38F52" stroke-width="2"/>
<path d="M38.0966 31.2279C38.0966 27.3087 34.9194 24.1315 31.0002 24.1315C27.081 24.1315 23.9038 27.3087 23.9038 31.2279C23.9038 35.1471 27.081 38.3243 31.0002 38.3243C34.9194 38.3243 38.0966 35.1471 38.0966 31.2279Z" stroke="#A38F52" stroke-width="2"/>
<path d="M52.4911 28.24C49.241 28.1807 44.8193 31.2279 44.8193 31.2279C44.8193 31.2279 49.241 34.2751 52.4911 34.2159C55.5965 34.1592 59.7591 31.2279 59.7591 31.2279C59.7591 31.2279 55.5965 28.2966 52.4911 28.24Z" stroke="#A38F52" stroke-width="2"/>
<path fill-rule="evenodd" clip-rule="evenodd" d="M24.6504 6.7229H8.21663H6.72266V8.21688V25.3976H8.21663V8.21688H24.6504V6.7229ZM35.8552 8.21688V6.7229H53.7829H55.2769V8.21688V25.3976H53.7829V8.21688H35.8552ZM35.8552 53.7831H53.7829V36.6024H55.2769V53.7831V55.2771H53.7829H35.8552V53.7831ZM8.21663 36.6024V53.7831H24.6504V55.2771H8.21663H6.72266V53.7831V36.6024H8.21663Z" fill="#A38F52"/>
</g>
<defs>
<clipPath id="clip0_607_85">
<rect width="62" height="62" fill="white"/>
</clipPath>
</defs>
</svg>
