<svg width="24" height="25" viewBox="0 0 24 25" fill="none" xmlns="http://www.w3.org/2000/svg">
<path d="M21.7388 16.9137C21.5716 18.1841 20.9477 19.3501 19.9837 20.1941C19.0196 21.0381 17.7813 21.5023 16.5 21.5C9.05626 21.5 3.00001 15.4437 3.00001 7.99999C2.99771 6.7187 3.4619 5.48039 4.30588 4.51633C5.14986 3.55228 6.31592 2.92841 7.58626 2.76124C7.9075 2.72202 8.2328 2.78774 8.51362 2.94859C8.79444 3.10944 9.0157 3.3568 9.14438 3.65374L11.1244 8.07406V8.08531C11.2229 8.31261 11.2636 8.56077 11.2428 8.80763C11.222 9.05449 11.1404 9.29236 11.0053 9.49999C10.9884 9.52531 10.9706 9.54874 10.9519 9.57218L9.00001 11.8859C9.7022 13.3128 11.1947 14.7922 12.6403 15.4962L14.9222 13.5547C14.9446 13.5358 14.9681 13.5183 14.9925 13.5022C15.2 13.3638 15.4387 13.2793 15.687 13.2564C15.9353 13.2335 16.1854 13.2729 16.4147 13.3709L16.4269 13.3766L20.8434 15.3556C21.1409 15.4838 21.3889 15.7049 21.5503 15.9858C21.7116 16.2666 21.7778 16.5922 21.7388 16.9137Z" fill="white"/>
</svg>
