<svg width="28" height="29" viewBox="0 0 28 29" fill="none" xmlns="http://www.w3.org/2000/svg">
<g clip-path="url(#clip0_57_336)">
<path d="M14 0.728516C6.26808 0.728516 0 6.9966 0 14.7285C0 21.294 4.52032 26.8032 10.6182 28.3164V19.0069H7.73136V14.7285H10.6182V12.885C10.6182 8.11996 12.7747 5.91132 17.453 5.91132C18.34 5.91132 19.8705 6.08548 20.4966 6.25908V10.1371C20.1662 10.1024 19.5922 10.085 18.8793 10.085C16.5838 10.085 15.6968 10.9547 15.6968 13.2154V14.7285H20.2698L19.4841 19.0069H15.6968V28.626C22.629 27.7888 28.0006 21.8864 28.0006 14.7285C28 6.9966 21.7319 0.728516 14 0.728516Z" fill="#F8F5F0"/>
</g>
<defs>
<clipPath id="clip0_57_336">
<rect width="28" height="28" fill="white" transform="translate(0 0.728516)"/>
</clipPath>
</defs>
</svg>
