<svg width="28" height="29" viewBox="0 0 28 29" fill="none" xmlns="http://www.w3.org/2000/svg">
<g clip-path="url(#clip0_57_335)">
<path d="M14 3.24961C17.7406 3.24961 18.1836 3.26602 19.6547 3.33164C21.0219 3.3918 21.7602 3.62148 22.2523 3.81289C22.9031 4.06445 23.3734 4.3707 23.8602 4.85742C24.3523 5.34961 24.6531 5.81445 24.9047 6.46523C25.0961 6.95742 25.3258 7.70117 25.3859 9.06289C25.4516 10.5395 25.468 10.9824 25.468 14.7176C25.468 18.4582 25.4516 18.9012 25.3859 20.3723C25.3258 21.7395 25.0961 22.4777 24.9047 22.9699C24.6531 23.6207 24.3469 24.091 23.8602 24.5777C23.368 25.0699 22.9031 25.3707 22.2523 25.6223C21.7602 25.8137 21.0164 26.0434 19.6547 26.1035C18.1781 26.1691 17.7352 26.1855 14 26.1855C10.2594 26.1855 9.81641 26.1691 8.34531 26.1035C6.97813 26.0434 6.23984 25.8137 5.74766 25.6223C5.09688 25.3707 4.62656 25.0645 4.13984 24.5777C3.64766 24.0855 3.34687 23.6207 3.09531 22.9699C2.90391 22.4777 2.67422 21.734 2.61406 20.3723C2.54844 18.8957 2.53203 18.4527 2.53203 14.7176C2.53203 10.977 2.54844 10.534 2.61406 9.06289C2.67422 7.6957 2.90391 6.95742 3.09531 6.46523C3.34687 5.81445 3.65313 5.34414 4.13984 4.85742C4.63203 4.36523 5.09688 4.06445 5.74766 3.81289C6.23984 3.62148 6.98359 3.3918 8.34531 3.33164C9.81641 3.26602 10.2594 3.24961 14 3.24961ZM14 0.728516C10.1992 0.728516 9.72344 0.744922 8.23047 0.810547C6.74297 0.876172 5.72031 1.1168 4.83437 1.46133C3.91016 1.82227 3.12813 2.29805 2.35156 3.08008C1.56953 3.85664 1.09375 4.63867 0.732812 5.55742C0.388281 6.44883 0.147656 7.46601 0.0820313 8.95352C0.0164063 10.452 0 10.9277 0 14.7285C0 18.5293 0.0164063 19.0051 0.0820313 20.498C0.147656 21.9855 0.388281 23.0082 0.732812 23.8941C1.09375 24.8184 1.56953 25.6004 2.35156 26.377C3.12813 27.1535 3.91016 27.6348 4.82891 27.9902C5.72031 28.3348 6.7375 28.5754 8.225 28.641C9.71797 28.7066 10.1937 28.723 13.9945 28.723C17.7953 28.723 18.2711 28.7066 19.7641 28.641C21.2516 28.5754 22.2742 28.3348 23.1602 27.9902C24.0789 27.6348 24.8609 27.1535 25.6375 26.377C26.4141 25.6004 26.8953 24.8184 27.2508 23.8996C27.5953 23.0082 27.8359 21.991 27.9016 20.5035C27.9672 19.0105 27.9836 18.5348 27.9836 14.734C27.9836 10.9332 27.9672 10.4574 27.9016 8.96445C27.8359 7.47695 27.5953 6.4543 27.2508 5.56836C26.9062 4.63867 26.4305 3.85664 25.6484 3.08008C24.8719 2.30352 24.0898 1.82227 23.1711 1.4668C22.2797 1.12227 21.2625 0.881641 19.775 0.816016C18.2766 0.744922 17.8008 0.728516 14 0.728516Z" fill="#F8F5F0"/>
<path d="M14 7.53711C10.0297 7.53711 6.80859 10.7582 6.80859 14.7285C6.80859 18.6988 10.0297 21.9199 14 21.9199C17.9703 21.9199 21.1914 18.6988 21.1914 14.7285C21.1914 10.7582 17.9703 7.53711 14 7.53711ZM14 19.3934C11.4242 19.3934 9.33516 17.3043 9.33516 14.7285C9.33516 12.1527 11.4242 10.0637 14 10.0637C16.5758 10.0637 18.6648 12.1527 18.6648 14.7285C18.6648 17.3043 16.5758 19.3934 14 19.3934Z" fill="#F8F5F0"/>
<path d="M23.1547 7.25313C23.1547 8.18282 22.4 8.93203 21.4758 8.93203C20.5461 8.93203 19.7969 8.17735 19.7969 7.25313C19.7969 6.32344 20.5516 5.57422 21.4758 5.57422C22.4 5.57422 23.1547 6.32891 23.1547 7.25313Z" fill="#F8F5F0"/>
</g>
<defs>
<clipPath id="clip0_57_335">
<rect width="28" height="28" fill="white" transform="translate(0 0.728516)"/>
</clipPath>
</defs>
</svg>
