<svg width="32" height="33" viewBox="0 0 32 33" fill="none" xmlns="http://www.w3.org/2000/svg">
<g clip-path="url(#clip0_42_99)">
<path d="M20 14.895V6.89502L16 2.89502L12 6.89502V9.56169H4V28.2284H28V14.895H20ZM9.33333 25.5617H6.66667V22.895H9.33333V25.5617ZM9.33333 20.2284H6.66667V17.5617H9.33333V20.2284ZM9.33333 14.895H6.66667V12.2284H9.33333V14.895ZM17.3333 25.5617H14.6667V22.895H17.3333V25.5617ZM17.3333 20.2284H14.6667V17.5617H17.3333V20.2284ZM17.3333 14.895H14.6667V12.2284H17.3333V14.895ZM17.3333 9.56169H14.6667V6.89502H17.3333V9.56169ZM25.3333 25.5617H22.6667V22.895H25.3333V25.5617ZM25.3333 20.2284H22.6667V17.5617H25.3333V20.2284Z" fill="#181A19"/>
</g>
<defs>
<clipPath id="clip0_42_99">
<rect width="32" height="32" fill="white" transform="translate(0 0.228516)"/>
</clipPath>
</defs>
</svg>
