<svg width="40" height="41" viewBox="0 0 40 41" fill="none" xmlns="http://www.w3.org/2000/svg">
<g clip-path="url(#clip0_67_108)">
<g clip-path="url(#clip1_67_108)">
<path d="M21.1272 8.44897H16.4805C15.8236 8.44897 15.3086 8.98632 15.3086 9.62085V26.3091C15.3086 26.9563 15.8333 27.481 16.4805 27.481C17.1277 27.481 17.6523 26.9563 17.6523 26.3091V20.2258C18.7398 20.2197 20.3313 20.2116 21.1273 20.2116C22.698 20.2116 24.1873 19.6037 25.3209 18.5C26.4687 17.3825 27.1008 15.9016 27.1008 14.3303C27.1008 12.759 26.4687 11.2781 25.3209 10.1605C24.1873 9.05687 22.698 8.44897 21.1272 8.44897ZM21.1272 17.8679C20.3359 17.8679 18.767 17.8758 17.678 17.8819C17.6581 14.232 17.6695 15.4594 17.6559 10.7927H21.1272C23.0948 10.7927 24.757 12.4127 24.757 14.3303C24.757 16.2479 23.0948 17.8679 21.1272 17.8679Z" fill="#116FFF"/>
<path d="M32.1533 5.81141C28.9071 2.56516 24.5909 0.777344 19.9998 0.777344C15.4088 0.777344 11.0927 2.56516 7.84641 5.81141C-1.5907 15.2485 2.89156 31.5163 15.9373 34.6684V38.8242C15.9373 39.9012 16.8135 40.7773 17.8905 40.7773H22.1092C23.1862 40.7773 24.0623 39.9012 24.0623 38.8242V34.6684C37.1207 31.5133 41.5838 15.2419 32.1533 5.81141ZM21.7186 38.4336H18.2811V35.0673C19.4209 35.1804 20.5787 35.1804 21.7186 35.0673V38.4336ZM22.6801 32.5675C13.6448 34.2163 5.15609 27.3257 5.15609 17.9648C5.15609 9.78 11.8149 3.12109 19.9998 3.12109C28.1848 3.12109 34.8436 9.78 34.8436 17.9648C34.8436 25.1302 29.7407 31.2791 22.6801 32.5675Z" fill="#116FFF"/>
</g>
</g>
<defs>
<clipPath id="clip0_67_108">
<rect width="40" height="40" fill="white" transform="translate(0 0.777344)"/>
</clipPath>
<clipPath id="clip1_67_108">
<rect width="40" height="40" fill="white" transform="translate(0 0.777344)"/>
</clipPath>
</defs>
</svg>
