<svg width="32" height="33" viewBox="0 0 32 33" fill="none" xmlns="http://www.w3.org/2000/svg">
<g clip-path="url(#clip0_42_158)">
<path d="M8.72 7.39518C8.8 8.58185 9 9.74185 9.32 10.8485L7.72 12.4485C7.17333 10.8485 6.82667 9.15518 6.70667 7.39518H8.72ZM21.8667 23.4219C23 23.7418 24.16 23.9418 25.3333 24.0218V26.0085C23.5733 25.8885 21.88 25.5418 20.2667 25.0085L21.8667 23.4219ZM10 4.72852H5.33333C4.6 4.72852 4 5.32852 4 6.06185C4 18.5819 14.1467 28.7285 26.6667 28.7285C27.4 28.7285 28 28.1285 28 27.3952V22.7418C28 22.0085 27.4 21.4085 26.6667 21.4085C25.0133 21.4085 23.4 21.1418 21.9067 20.6485C21.7733 20.5952 21.6267 20.5819 21.4933 20.5819C21.1467 20.5819 20.8133 20.7152 20.5467 20.9685L17.6133 23.9018C13.84 21.9685 10.7467 18.8885 8.82667 15.1152L11.76 12.1818C12.1333 11.8085 12.24 11.2885 12.0933 10.8218C11.6 9.32852 11.3333 7.72852 11.3333 6.06185C11.3333 5.32852 10.7333 4.72852 10 4.72852Z" fill="#073765"/>
</g>
<defs>
<clipPath id="clip0_42_158">
<rect width="32" height="32" fill="white" transform="translate(0 0.728516)"/>
</clipPath>
</defs>
</svg>
