<svg width="19" height="16" viewBox="0 0 19 16" fill="none" xmlns="http://www.w3.org/2000/svg">
<path d="M18.2806 8.53061L11.5306 15.2806C11.3899 15.4213 11.199 15.5004 11 15.5004C10.801 15.5004 10.6101 15.4213 10.4694 15.2806C10.3286 15.1399 10.2496 14.949 10.2496 14.75C10.2496 14.551 10.3286 14.3601 10.4694 14.2194L15.9397 8.74999H1.25C1.05109 8.74999 0.860322 8.67097 0.71967 8.53032C0.579018 8.38967 0.5 8.1989 0.5 7.99999C0.5 7.80108 0.579018 7.61031 0.71967 7.46966C0.860322 7.32901 1.05109 7.24999 1.25 7.24999H15.9397L10.4694 1.78061C10.3286 1.63988 10.2496 1.44901 10.2496 1.24999C10.2496 1.05097 10.3286 0.860095 10.4694 0.719365C10.6101 0.578634 10.801 0.499573 11 0.499573C11.199 0.499573 11.3899 0.578634 11.5306 0.719365L18.2806 7.46936C18.3504 7.53902 18.4057 7.62174 18.4434 7.71278C18.4812 7.80383 18.5006 7.90143 18.5006 7.99999C18.5006 8.09855 18.4812 8.19615 18.4434 8.2872C18.4057 8.37824 18.3504 8.46096 18.2806 8.53061Z" fill="#A38F52"/>
</svg>
