<svg width="28" height="29" viewBox="0 0 28 29" fill="none" xmlns="http://www.w3.org/2000/svg">
<path d="M0 28.7285L1.96816 21.5383C0.753665 19.4336 0.1155 17.0478 0.116666 14.6013C0.120166 6.95267 6.34432 0.728516 13.9918 0.728516C17.703 0.729682 21.1866 2.17518 23.8069 4.79784C26.4261 7.4205 27.8681 10.9065 27.8669 14.6142C27.8634 22.264 21.6393 28.4881 13.9918 28.4881C11.6701 28.487 9.38231 27.9048 7.35582 26.7988L0 28.7285ZM7.69648 24.287C9.65181 25.4478 11.5185 26.1431 13.9871 26.1443C20.3431 26.1443 25.5208 20.9713 25.5243 14.6118C25.5266 8.2395 20.3735 3.07351 13.9965 3.07118C7.63582 3.07118 2.46166 8.24417 2.45933 14.6025C2.45816 17.1983 3.21883 19.142 4.49632 21.1755L3.33083 25.4315L7.69648 24.287ZM20.9813 17.9123C20.895 17.7676 20.664 17.6813 20.3163 17.5075C19.9698 17.3336 18.2653 16.4948 17.9468 16.3793C17.6295 16.2638 17.3985 16.2055 17.1663 16.5531C16.9353 16.8996 16.2703 17.6813 16.0685 17.9123C15.8666 18.1433 15.6636 18.1725 15.3171 17.9986C14.9706 17.8248 13.853 17.4596 12.5288 16.2778C11.4986 15.3585 10.8021 14.2233 10.6003 13.8757C10.3985 13.5292 10.5793 13.3413 10.752 13.1687C10.9083 13.0135 11.0985 12.7638 11.2723 12.5608C11.4485 12.3602 11.5056 12.2155 11.6223 11.9833C11.7378 11.7523 11.6806 11.5493 11.5931 11.3755C11.5056 11.2028 10.8126 9.496 10.5245 8.80183C10.2421 8.12633 9.95631 8.21733 9.74398 8.20683L9.07898 8.19517C8.84798 8.19517 8.47231 8.2815 8.15498 8.62916C7.83765 8.97683 6.94165 9.8145 6.94165 11.5213C6.94165 13.2282 8.18415 14.8766 8.35681 15.1076C8.53065 15.3386 10.801 18.841 14.2788 20.3425C15.106 20.6995 15.7523 20.913 16.2551 21.0728C17.0858 21.3365 17.8418 21.2991 18.4391 21.2105C19.1053 21.1113 20.4901 20.3716 20.7795 19.562C21.0688 18.7511 21.0688 18.057 20.9813 17.9123Z" fill="#F8F5F0"/>
</svg>
